<svg width="21" height="22" viewBox="0 0 21 22" fill="none" xmlns="http://www.w3.org/2000/svg">
<path d="M15.4417 5.10385H15.4513M5.3199 0.5H14.9597C17.6217 0.5 19.7796 2.79024 19.7796 5.61539V15.8462C19.7796 18.6713 17.6217 20.9615 14.9597 20.9615H5.3199C2.65794 20.9615 0.5 18.6713 0.5 15.8462V5.61539C0.5 2.79024 2.65794 0.5 5.3199 0.5ZM13.9957 10.0862C14.1147 10.9377 13.9777 11.8073 13.6041 12.5713C13.2306 13.3353 12.6395 13.9549 11.9151 14.3419C11.1906 14.7289 10.3697 14.8636 9.56892 14.7268C8.76818 14.5901 8.02845 14.1889 7.45496 13.5802C6.88147 12.9716 6.50341 12.1865 6.37456 11.3367C6.24571 10.4868 6.37263 9.61551 6.73726 8.84664C7.1019 8.07778 7.68569 7.45052 8.40558 7.05408C9.12548 6.65764 9.94484 6.5122 10.7471 6.63846C11.5655 6.76725 12.3231 7.17196 12.9081 7.79281C13.493 8.41365 13.8744 9.21772 13.9957 10.0862Z" stroke="#F5F5F5" stroke-linecap="round" stroke-linejoin="round"/>
</svg>
