<svg width="22" height="22" viewBox="0 0 22 22" fill="none" xmlns="http://www.w3.org/2000/svg">
<path d="M14.7455 6.96154C16.3647 6.96154 17.9176 7.64231 19.0625 8.85408C20.2075 10.0659 20.8507 11.7094 20.8507 13.4231V20.9615H16.7805V13.4231C16.7805 12.8518 16.5661 12.304 16.1845 11.9001C15.8028 11.4962 15.2852 11.2692 14.7455 11.2692C14.2057 11.2692 13.6881 11.4962 13.3065 11.9001C12.9248 12.304 12.7104 12.8518 12.7104 13.4231V20.9615H8.64027V13.4231C8.64027 11.7094 9.2835 10.0659 10.4284 8.85408C11.5734 7.64231 13.1263 6.96154 14.7455 6.96154Z" stroke="white" stroke-linecap="round" stroke-linejoin="round"/>
<path d="M4.57014 8.03846H0.5V20.9615H4.57014V8.03846Z" stroke="white" stroke-linecap="round" stroke-linejoin="round"/>
<path d="M2.53507 4.80769C3.65901 4.80769 4.57014 3.84338 4.57014 2.65385C4.57014 1.46431 3.65901 0.5 2.53507 0.5C1.41113 0.5 0.5 1.46431 0.5 2.65385C0.5 3.84338 1.41113 4.80769 2.53507 4.80769Z" stroke="white" stroke-linecap="round" stroke-linejoin="round"/>
</svg>
