<svg width="140" height="136" viewBox="0 0 140 136" fill="none" xmlns="http://www.w3.org/2000/svg">
<path d="M69.1399 81.2C77.5199 73.84 82.9012 68.66 85.2838 65.66C87.6663 62.66 88.8576 59.68 88.8576 56.72C88.8576 53.84 87.7895 51.36 85.6535 49.28C83.5174 47.2 80.9705 46.16 78.0129 46.16C76.2876 46.16 74.6239 46.5 73.0218 47.18C71.4198 47.86 70.1258 48.8 69.1399 50C68.154 48.8 66.8806 47.86 65.3196 47.18C63.7586 46.5 62.0744 46.16 60.267 46.16C57.3093 46.16 54.7625 47.2 52.6264 49.28C50.4903 51.36 49.4223 53.84 49.4223 56.72C49.4223 58.24 49.6276 59.64 50.0384 60.92C50.4492 62.2 51.3529 63.7 52.7496 65.42C54.1463 67.14 56.1386 69.24 58.7265 71.72C61.3145 74.2 64.7856 77.36 69.1399 81.2ZM69.1399 110C57.7201 107.2 48.2926 100.82 40.8574 90.86C33.4222 80.9 29.7046 69.84 29.7046 57.68V28.4L69.1399 14L108.575 28.4V57.68C108.575 69.84 104.858 80.9 97.4224 90.86C89.9872 100.82 80.5597 107.2 69.1399 110ZM69.1399 99.92C77.6842 97.28 84.7497 92 90.3364 84.08C95.9231 76.16 98.7164 67.36 98.7164 57.68V35L69.1399 24.2L39.5634 35V57.68C39.5634 67.36 42.3568 76.16 47.9434 84.08C53.5301 92 60.5956 97.28 69.1399 99.92Z" fill="white"/>
</svg>
